<svg xmlns="http://www.w3.org/2000/svg" height="24px" width="24px" xmlns:xlink="http://www.w3.org/1999/xlink" viewBox="0 0 24 24">
<g fill-rule="evenodd" fill="none">
<g transform="translate(-18 -265)" fill="#434343">
<g transform="translate(0 61)">
<g transform="translate(18 204)">
<path d="m22.5 12h-3v10.5c0 0.83-0.67 1.5-1.5 1.5h-3v-6c0-0.828-0.67-1.5-1.5-1.5h-3c-0.828 0-1.5 0.672-1.5 1.5v6h-3c-0.828 0-1.5-0.67-1.5-1.5v-10.5h-3l-1.5-1.5 12-10.5 12 10.5-1.5 1.5zm-10.5-4.5c-1.656 0-3 1.344-3 3s1.344 3 3 3 3-1.344 3-3-1.344-3-3-3z"/>
</g>
</g>
</g>
</g>
</svg>
