<svg xmlns="http://www.w3.org/2000/svg" height="24px" width="24px" xmlns:xlink="http://www.w3.org/1999/xlink" viewBox="0 0 24 24">
<g fill-rule="evenodd" fill="none">
<g transform="translate(-18 -314)" fill="#434343">
<g transform="translate(0 61)">
<g transform="translate(18 253)">
<path d="m19.5 0l-9 3h-4.5c-2.4855 0-4.5 2.0145-4.5 4.5-0.828 0-1.5 0.672-1.5 1.5s0.672 1.5 1.5 1.5c0 1.851 1.1205 3.44 2.718 4.131l-1.218 7.869c0 0.83 0.672 1.5 1.5 1.5h3c0.828 0 1.5-0.67 1.5-1.5l1.125-7.5h0.375l9 3c2.484 0 4.5-4.03 4.5-9 0-4.9695-2.016-9-4.5-9zm-13.5 9h-1.5v-3h1.5v3zm3 0h-1.5v-3h1.5v3zm10.5 6c-1.656 0-3-2.686-3-6 0-3.3135 1.344-6 3-6s3 2.6865 3 6c0 3.314-1.344 6-3 6zm0-7.5h-1.362c-0.084 0.471-0.138 0.9705-0.138 1.5s0.054 1.029 0.138 1.5h1.362c0.83 0 1.5-0.672 1.5-1.5s-0.67-1.5-1.5-1.5z"/>
</g>
</g>
</g>
</g>
</svg>
