<svg xmlns="http://www.w3.org/2000/svg" height="24px" width="24px" xmlns:xlink="http://www.w3.org/1999/xlink" viewBox="0 0 24 24">
<g fill="none" fill-rule="evenodd">
<g fill="#434343" transform="translate(-18 -363)">
<g transform="translate(0 61)">
<g transform="translate(18 302)">
<path d="m7.5 15h-6c-0.828 0-1.5 0.672-1.5 1.5v6c0 0.83 0.672 1.5 1.5 1.5h6c0.828 0 1.5-0.67 1.5-1.5v-6c0-0.828-0.672-1.5-1.5-1.5zm-1.5 6h-3v-3h3v3zm16.5-21h-6c-0.83 0-1.5 0.672-1.5 1.5v6c0 0.828 0.67 1.5 1.5 1.5h6c0.83 0 1.5-0.672 1.5-1.5v-6c0-0.828-0.67-1.5-1.5-1.5zm-1.5 6h-3v-3h3v3zm-10.5-4.5c0.828 0 1.5 0.672 1.5 1.5s-0.672 1.5-1.5 1.5h-3c-0.828 0-1.5 0.672-1.5 1.5h1.5c0.606 0 1.155 0.366 1.386 0.9255 0.231 0.561 0.1035 1.206-0.3255 1.635l-3 2.9995c-0.2925 0.293-0.6765 0.44-1.0605 0.44s-0.768-0.147-1.0605-0.44l-3-2.9995c-0.4275-0.429-0.5565-1.074-0.3255-1.635 0.231-0.5595 0.78-0.9255 1.386-0.9255h1.5c0-2.4855 2.0145-4.5 4.5-4.5h3zm10.06 10.94l3 3c0.428 0.428 0.557 1.074 0.326 1.634s-0.78 0.926-1.386 0.926h-1.5c0 2.484-2.016 4.5-4.5 4.5h-3c-0.83 0-1.5-0.672-1.5-1.5 0-0.83 0.672-1.5 1.5-1.5h3c0.83 0 1.5-0.67 1.5-1.5h-1.5c-0.606 0-1.155-0.366-1.386-0.926s-0.104-1.206 0.326-1.634l3-3c0.292-0.293 0.676-0.44 1.06-0.44s0.768 0.147 1.06 0.44z"/>
</g>
</g>
</g>
</g>
</svg>
