<svg xmlns="http://www.w3.org/2000/svg" height="182px" width="120px" xmlns:xlink="http://www.w3.org/1999/xlink" viewBox="0 0 120 182">
<g fill-rule="evenodd" fill="none">
<g transform="translate(-14 -758)">
<g transform="translate(14 758)">
<g fill="#888">
<path d="m2 120h116v3h-116v-3zm-2 5h120v-7h-120v7z"/>
<path d="m6 125h108v3h-108v-3zm-2 5h112v-7h-112v7z"/>
<path d="m27 40h66v3h-66v-3zm-2 5h70v-7h-70v7z"/>
<path d="m42 25h36v13h-36v-13zm-2 15h40v-17h-40v17z"/>
<path d="m36 21h48v2h-48v-2zm-2 4h52v-6h-52v6z"/>
<path d="m59 2h2v17h-2v-17zm-2 19h6v-21h-6v21z"/>
</g>
<path fill="#D8EEFF" d="m45 27h6v9h-6v-9z"/>
<path fill="#888" d="m47 29h2v5h-2v-5zm-2 7h6v-9h-6v9z"/>
<path fill="#D8EEFF" d="m53 27h6v9h-6v-9z"/>
<path fill="#888" d="m55 29h2v5h-2v-5zm-2 7h6v-9h-6v9z"/>
<path fill="#D8EEFF" d="m61 27h6v9h-6v-9z"/>
<path fill="#888" d="m63 29h2v5h-2v-5zm-2 7h6v-9h-6v9z"/>
<path fill="#D8EEFF" d="m69 27h6v9h-6v-9z"/>
<g fill="#888">
<path d="m71 29h2v5h-2v-5zm-2 7h6v-9h-6v9z"/>
<path d="m2 177h116v3h-116v-3zm-2 5h120v-7h-120v7z"/>
<path d="m6 128h2v47h-2v-47z"/>
<path d="m112 128.04h2v46.96h-2v-46.96z"/>
</g>
<path fill="#D8EEFF" d="m13 133h10v10h-10v-10z"/>
<path fill="#888" d="m15 135h6v6h-6v-6zm-2 8h10v-10h-10v10z"/>
<path fill="#D8EEFF" d="m27 133h10v10h-10v-10z"/>
<path fill="#888" d="m29 135h6v6h-6v-6zm-2 8h10v-10h-10v10z"/>
<path fill="#D8EEFF" d="m41 133h10v10h-10v-10z"/>
<path fill="#888" d="m43 135h6v6h-6v-6zm-2 8h10v-10h-10v10z"/>
<path fill="#D8EEFF" d="m55 133h10v10h-10v-10z"/>
<path fill="#888" d="m57 135h6v6h-6v-6zm-2 8h10v-10h-10v10z"/>
<path fill="#D8EEFF" d="m69 133h10v10h-10v-10z"/>
<path fill="#888" d="m71 135h6v6h-6v-6zm-2 8h10v-10h-10v10z"/>
<path fill="#D8EEFF" d="m83 133h10v10h-10v-10z"/>
<path fill="#888" d="m85 135h6v6h-6v-6zm-2 8h10v-10h-10v10z"/>
<path fill="#D8EEFF" d="m97 133h10v10h-10v-10z"/>
<path fill="#888" d="m99 135h6v6h-6v-6zm-2 8h10v-10h-10v10z"/>
<path fill="#D8EEFF" d="m13 147h10v10h-10v-10z"/>
<path fill="#888" d="m15 149h6v6h-6v-6zm-2 8h10v-10h-10v10z"/>
<path fill="#D8EEFF" d="m27 147h10v10h-10v-10z"/>
<path fill="#888" d="m29 149h6v6h-6v-6zm-2 8h10v-10h-10v10z"/>
<path fill="#D8EEFF" d="m41 147h10v10h-10v-10z"/>
<path fill="#888" d="m43 149h6v6h-6v-6zm-2 8h10v-10h-10v10z"/>
<path fill="#D8EEFF" d="m55 147h10v10h-10v-10z"/>
<path fill="#888" d="m57 149h6v6h-6v-6zm-2 8h10v-10h-10v10z"/>
<path fill="#D8EEFF" d="m69 147h10v10h-10v-10z"/>
<path fill="#888" d="m71 149h6v6h-6v-6zm-2 8h10v-10h-10v10z"/>
<path fill="#D8EEFF" d="m83 147h10v10h-10v-10z"/>
<path fill="#888" d="m85 149h6v6h-6v-6zm-2 8h10v-10h-10v10z"/>
<path fill="#D8EEFF" d="m13 161h10v10h-10v-10z"/>
<path fill="#888" d="m15 163h6v6h-6v-6zm-2 8h10v-10h-10v10z"/>
<path fill="#D8EEFF" d="m27 161h10v10h-10v-10z"/>
<path fill="#888" d="m29 163h6v6h-6v-6zm-2 8h10v-10h-10v10z"/>
<path fill="#D8EEFF" d="m41 161h10v10h-10v-10z"/>
<path fill="#888" d="m43 163h6v6h-6v-6zm-2 8h10v-10h-10v10z"/>
<path fill="#D8EEFF" d="m55 161h10v10h-10v-10z"/>
<path fill="#888" d="m57 163h6v6h-6v-6zm-2 8h10v-10h-10v10z"/>
<path fill="#D8EEFF" d="m69 161h10v10h-10v-10z"/>
<path fill="#888" d="m71 163h6v6h-6v-6zm-2 8h10v-10h-10v10z"/>
<path fill="#D8EEFF" d="m83 161h10v10h-10v-10z"/>
<path fill="#888" d="m85 163h6v6h-6v-6zm-2 8h10v-10h-10v10z"/>
<path fill="#D8EEFF" d="m97 161h10v10h-10v-10z"/>
<path fill="#888" d="m99 163h6v6h-6v-6zm-2 8h10v-10h-10v10z"/>
<path fill="#D8EEFF" d="m97 147h10v10h-10v-10z"/>
<g fill="#888">
<path d="m99 149h6v6h-6v-6zm-2 8h10v-10h-10v10z"/>
<path d="m28 45h2v75h-2v-75z"/>
<path d="m90 45.066h2v74.934h-2v-74.934z"/>
</g>
<path fill="#D8EEFF" d="m34 48h10v10h-10v-10z"/>
<path fill="#888" d="m36 50h6v6h-6v-6zm-2 8h10v-10h-10v10z"/>
<path fill="#D8EEFF" d="m48 48h10v10h-10v-10z"/>
<path fill="#888" d="m50 50h6v6h-6v-6zm-2 8h10v-10h-10v10z"/>
<path fill="#D8EEFF" d="m62 48h10v10h-10v-10z"/>
<path fill="#888" d="m64 50h6v6h-6v-6zm-2 8h10v-10h-10v10z"/>
<path fill="#D8EEFF" d="m76 48h10v10h-10v-10z"/>
<path fill="#888" d="m78 50h6v6h-6v-6zm-2 8h10v-10h-10v10z"/>
<path fill="#D8EEFF" d="m34 62h10v10h-10v-10z"/>
<path fill="#888" d="m36 64h6v6h-6v-6zm-2 8h10v-10h-10v10z"/>
<path fill="#D8EEFF" d="m48 62h10v10h-10v-10z"/>
<path fill="#888" d="m50 64h6v6h-6v-6zm-2 8h10v-10h-10v10z"/>
<path fill="#D8EEFF" d="m62 62h10v10h-10v-10z"/>
<path fill="#888" d="m64 64h6v6h-6v-6zm-2 8h10v-10h-10v10z"/>
<path fill="#D8EEFF" d="m76 62h10v10h-10v-10z"/>
<path fill="#888" d="m78 64h6v6h-6v-6zm-2 8h10v-10h-10v10z"/>
<path fill="#D8EEFF" d="m34 76h10v10h-10v-10z"/>
<path fill="#888" d="m36 78h6v6h-6v-6zm-2 8h10v-10h-10v10z"/>
<path fill="#D8EEFF" d="m48 76h10v10h-10v-10z"/>
<path fill="#888" d="m50 78h6v6h-6v-6zm-2 8h10v-10h-10v10z"/>
<path fill="#D8EEFF" d="m62 76h10v10h-10v-10z"/>
<path fill="#888" d="m64 78h6v6h-6v-6zm-2 8h10v-10h-10v10z"/>
<path fill="#D8EEFF" d="m76 76h10v10h-10v-10z"/>
<path fill="#888" d="m78 78h6v6h-6v-6zm-2 8h10v-10h-10v10z"/>
<path fill="#D8EEFF" d="m34 90h10v10h-10v-10z"/>
<path fill="#888" d="m36 92h6v6h-6v-6zm-2 8h10v-10h-10v10z"/>
<path fill="#D8EEFF" d="m48 90h10v10h-10v-10z"/>
<path fill="#888" d="m50 92h6v6h-6v-6zm-2 8h10v-10h-10v10z"/>
<path fill="#D8EEFF" d="m62 90h10v10h-10v-10z"/>
<path fill="#888" d="m64 92h6v6h-6v-6zm-2 8h10v-10h-10v10z"/>
<path fill="#D8EEFF" d="m76 90h10v10h-10v-10z"/>
<path fill="#888" d="m78 92h6v6h-6v-6zm-2 8h10v-10h-10v10z"/>
<path fill="#D8EEFF" d="m34 104h10v10h-10v-10z"/>
<path fill="#888" d="m36 106h6v6h-6v-6zm-2 8h10v-10h-10v10z"/>
<path fill="#D8EEFF" d="m48 104h10v10h-10v-10z"/>
<path fill="#888" d="m50 106h6v6h-6v-6zm-2 8h10v-10h-10v10z"/>
<path fill="#D8EEFF" d="m62 104h10v10h-10v-10z"/>
<path fill="#888" d="m64 106h6v6h-6v-6zm-2 8h10v-10h-10v10z"/>
<path fill="#D8EEFF" d="m76 104h10v10h-10v-10z"/>
<path fill="#888" d="m78 106h6v6h-6v-6zm-2 8h10v-10h-10v10z"/>
</g>
</g>
</g>
</svg>
