<svg xmlns="http://www.w3.org/2000/svg" height="60px" width="203px" xmlns:xlink="http://www.w3.org/1999/xlink" viewBox="0 0 203 60">
<g fill-rule="evenodd" fill="none">
<g>
<g>
<g>
<path fill="#A6A6A6" d="m195.78 60h-188.67c-3.9191 0-7.11-3.192-7.11-7.1v-45.811c0-3.909 3.1909-7.089 7.111-7.089h188.67c3.92 0 7.22 3.18 7.22 7.089v45.811c0 3.908-3.3 7.1-7.22 7.1z"/>
<path fill="#000" d="m201.54 52.902c0 3.174-2.57 5.745-5.76 5.745h-188.67c-3.1853 0-5.7717-2.571-5.7717-5.745v-45.814c0-3.173 2.5864-5.753 5.7727-5.753h188.67c3.19 0 5.76 2.58 5.76 5.7525v45.814z"/>
<g fill="#fff">
<g transform="translate(19.548 9)">
<path d="m25.755 20.676c-0.043-4.834 3.969-7.186 4.152-7.296-2.272-3.304-5.794-3.756-7.031-3.792-2.958-0.3105-5.827 1.766-7.334 1.766-1.537 0-3.857-1.736-6.3574-1.685-3.2179 0.0495-6.2283 1.908-7.8794 4.794-3.4074 5.885-0.86612 14.532 2.3984 19.289 1.633 2.329 3.5412 4.93 6.0389 4.838 2.4435-0.1 3.3565-1.554 6.3055-1.554 2.921 0 3.778 1.554 6.326 1.496 2.622-0.042 4.273-2.34 5.849-4.69 1.887-2.67 2.645-5.3 2.675-5.435-0.062-0.021-5.093-1.937-5.143-7.731z"/>
<path d="m20.944 6.459c1.314-1.6395 2.213-3.87 1.963-6.1335-1.902 0.084-4.281 1.3125-5.65 2.916-1.212 1.413-2.295 3.729-2.015 5.907 2.136 0.159 4.33-1.0755 5.702-2.6895z"/>
</g>
<g transform="translate(63.156 27)">
<path d="m17.511 20.256h-3.415l-1.871-5.864h-6.5019l-1.7819 5.864h-3.3247l6.4419-19.962h3.9786l6.474 19.962zm-5.85-8.324l-1.6914-5.212c-0.179-0.5325-0.5143-1.7865-1.009-3.7605h-0.0602c-0.197 0.849-0.5142 2.103-0.9503 3.7605l-1.6616 5.212h5.3725z"/>
<path d="m34.077 12.882c0 2.448-0.663 4.383-1.989 5.804-1.188 1.264-2.664 1.896-4.424 1.896-1.901 0-3.266-0.682-4.098-2.044h-0.06v7.583h-3.206v-15.521c0-1.5385-0.041-3.118-0.119-4.738h2.82l0.179 2.2815h0.06c1.069-1.719 2.691-2.577 4.869-2.577 1.702 0 3.123 0.6705 4.26 2.013 1.14 1.344 1.708 3.1105 1.708 5.3025zm-3.266 0.117c0-1.401-0.316-2.556-0.95-3.465-0.694-0.948-1.624-1.422-2.791-1.422-0.791 0-1.51 0.264-2.152 0.7845-0.644 0.525-1.065 1.2105-1.262 2.0595-0.099 0.396-0.149 0.72-0.149 0.975v2.4c0 1.047 0.322 1.931 0.966 2.652 0.643 0.721 1.479 1.081 2.508 1.081 1.207 0 2.147-0.464 2.819-1.392 0.674-0.928 1.011-2.152 1.011-3.673z"/>
<path d="m50.673 12.882c0 2.448-0.663 4.383-1.991 5.804-1.186 1.264-2.661 1.896-4.422 1.896-1.901 0-3.266-0.682-4.096-2.044h-0.06v7.583h-3.206v-15.521c0-1.5385-0.041-3.118-0.119-4.738h2.82l0.178 2.2815h0.061c1.067-1.719 2.69-2.577 4.869-2.577 1.7 0 3.121 0.6705 4.261 2.013 1.135 1.344 1.705 3.1105 1.705 5.3025zm-3.266 0.117c0-1.401-0.317-2.556-0.952-3.465-0.693-0.948-1.621-1.422-2.789-1.422-0.792 0-1.51 0.264-2.153 0.7845-0.644 0.525-1.063 1.2105-1.26 2.0595-0.098 0.396-0.149 0.72-0.149 0.975v2.4c0 1.047 0.322 1.931 0.962 2.652 0.644 0.72 1.48 1.081 2.511 1.081 1.208 0 2.148-0.464 2.82-1.392 0.673-0.928 1.01-2.152 1.01-3.673z"/>
<path d="m69.229 14.658c0 1.698-0.591 3.08-1.777 4.146-1.304 1.166-3.119 1.748-5.451 1.748-2.154 0-3.88-0.414-5.187-1.244l0.743-2.666c1.408 0.85 2.952 1.276 4.635 1.276 1.207 0 2.147-0.274 2.822-0.816 0.672-0.544 1.008-1.272 1.008-2.182 0-0.81-0.277-1.492-0.832-2.046-0.552-0.553-1.474-1.068-2.761-1.543-3.503-1.303-5.254-3.213-5.254-5.724 0-1.641 0.614-2.9865 1.842-4.0335 1.224-1.0485 2.857-1.572 4.899-1.572 1.821 0 3.334 0.3165 4.542 0.948l-0.802 2.607c-1.128-0.612-2.403-0.918-3.83-0.918-1.128 0-2.009 0.2775-2.64 0.8295-0.534 0.4935-0.802 1.095-0.802 1.8075 0 0.789 0.305 1.4415 0.919 1.9545 0.534 0.474 1.504 0.987 2.911 1.5405 1.722 0.6915 2.987 1.4995 3.8 2.4275 0.811 0.924 1.215 2.08 1.215 3.46z"/>
<path d="m79.829 8.262h-3.534v6.988c0 1.778 0.622 2.666 1.871 2.666 0.572 0 1.048-0.05 1.424-0.148l0.088 2.428c-0.631 0.236-1.463 0.354-2.493 0.354-1.266 0-2.255-0.386-2.97-1.155-0.711-0.771-1.069-2.064-1.069-3.881v-7.255h-2.105v-2.4h2.105v-2.6355l3.149-0.948v3.5835h3.534v2.403z"/>
<path d="m95.772 12.94c0 2.213-0.634 4.03-1.9 5.45-1.328 1.462-3.09 2.192-5.287 2.192-2.118 0-3.803-0.701-5.06-2.102s-1.886-3.17-1.886-5.301c0-2.231 0.647-4.0575 1.944-5.478 1.295-1.422 3.042-2.133 5.239-2.133 2.117 0 3.821 0.7005 5.107 2.103 1.23 1.3605 1.843 3.117 1.843 5.269zm-3.326 0.104c0-1.328-0.284-2.466-0.86-3.4155-0.672-1.149-1.633-1.722-2.878-1.722-1.289 0-2.268 0.5745-2.94 1.722-0.576 0.9515-0.86 2.1075-0.86 3.4755 0 1.328 0.284 2.466 0.86 3.414 0.693 1.149 1.662 1.722 2.911 1.722 1.224 0 2.185-0.585 2.879-1.752 0.59-0.968 0.888-2.118 0.888-3.444z"/>
<path d="m106.19 8.6745c-0.31-0.0585-0.65-0.0885-1.01-0.0885-1.13 0-2 0.4245-2.61 1.275-0.53 0.75-0.8 1.698-0.8 2.843v7.552h-3.207l0.03-9.861c0-1.659-0.04-3.1695-0.12-4.5315h2.797l0.11 2.754h0.09c0.34-0.9465 0.87-1.7085 1.6-2.28 0.72-0.5145 1.49-0.771 2.32-0.771 0.3 0 0.57 0.021 0.8 0.0585v3.0495z"/>
<path d="m120.53 12.378c0 0.573-0.04 1.056-0.12 1.45h-9.61c0.03 1.422 0.5 2.51 1.39 3.26 0.81 0.67 1.86 1.006 3.15 1.006 1.42 0 2.72-0.226 3.89-0.68l0.5 2.22c-1.36 0.594-2.98 0.889-4.84 0.889-2.23 0-3.99-0.657-5.27-1.969-1.27-1.313-1.91-3.076-1.91-5.286 0-2.171 0.59-3.9785 1.78-5.42 1.25-1.539 2.93-2.3085 5.05-2.3085 2.08 0 3.65 0.7695 4.72 2.3085 0.85 1.2225 1.27 2.734 1.27 4.53zm-3.06-0.83c0.02-0.948-0.18-1.7665-0.62-2.458-0.55-0.8895-1.41-1.3335-2.55-1.3335-1.05 0-1.9 0.4335-2.56 1.3035-0.53 0.6915-0.85 1.521-0.94 2.487h6.67v0.001z"/>
</g>
<g transform="translate(64.659 9)">
<path d="m7.2313 2.667h-2.8149v8.483h-1.5759v-8.483h-2.7999v-1.323h7.1907v1.323z"/>
<path d="m12.139 11.15l-0.115-0.815h-0.044c-0.475 0.649-1.165 0.975-2.0706 0.975-0.3218 0-0.612-0.054-0.8751-0.16-0.2632-0.107-0.4918-0.252-0.6857-0.437-0.1955-0.185-0.3444-0.402-0.4527-0.655-0.1067-0.2525-0.1593-0.53-0.1593-0.83 0-0.882 0.3593-1.545 1.0796-1.986s1.7398-0.6615 3.0628-0.6615v-0.1305c0-0.9315-0.49-1.3965-1.47-1.3965-0.6996 0-1.3161 0.1755-1.8484 0.5235l-0.3203-1.032c0.6511-0.4065 1.4616-0.6105 2.4317-0.6105 1.854 0 2.782 0.975 2.782 2.925v2.604c0 0.7275 0.034 1.2905 0.102 1.6875h-1.417v-0.001zm-0.219-3.521c-0.88 0-1.535 0.111-1.9655 0.3345-0.43 0.2235-0.6451 0.588-0.6451 1.092 0 0.369 0.1008 0.645 0.3038 0.8295 0.203 0.185 0.4598 0.276 0.7698 0.276 0.203 0 0.396-0.036 0.581-0.109 0.183-0.0725 0.344-0.173 0.484-0.299 0.141-0.126 0.254-0.279 0.343-0.459 0.087-0.18 0.129-0.3705 0.129-0.5745v-1.0905zm-1.647-4.365c0.038-0.165 0.104-0.306 0.197-0.4215 0.094-0.1155 0.185-0.225 0.278-0.327 0.094-0.102 0.172-0.201 0.241-0.2985 0.068-0.0975 0.101-0.2145 0.101-0.3495 0-0.1455-0.045-0.2625-0.139-0.3495-0.093-0.087-0.207-0.1305-0.342-0.1305-0.157 0-0.291 0.051-0.403 0.153-0.113 0.102-0.2064 0.216-0.2831 0.342l-0.5548-0.336c0.1368-0.282 0.3293-0.5235 0.5774-0.7275 0.2465-0.204 0.5655-0.306 0.9545-0.306 0.37 0 0.679 0.1065 0.927 0.3195 0.248 0.2145 0.371 0.4905 0.371 0.8295 0 0.213-0.044 0.3945-0.131 0.546-0.088 0.15-0.189 0.288-0.307 0.414-0.115 0.126-0.237 0.252-0.363 0.378-0.127 0.126-0.234 0.2775-0.322 0.4515l-0.802-0.1875z"/>
<path d="m17.517 1.968c0 0.282-0.094 0.5085-0.277 0.684-0.185 0.1755-0.423 0.2625-0.716 0.2625-0.263 0-0.484-0.09-0.663-0.2685-0.18-0.18-0.271-0.405-0.271-0.6765s0.094-0.495 0.279-0.669 0.412-0.2625 0.685-0.2625c0.272 0 0.501 0.0885 0.686 0.2625 0.183 0.1725 0.277 0.396 0.277 0.6675zm-0.175 9.182h-1.576v-7.0715h1.576v7.0715z"/>
<path d="m29.491 4.0785l-2.684 7.0715h-1.533l-2.597-7.0715h1.692l1.212 3.7395c0.205 0.621 0.374 1.218 0.51 1.7895h0.043c0.118-0.5145 0.288-1.11 0.512-1.7895l1.195-3.7395h1.65z"/>
<path d="m36.689 7.2795c0 0.135-0.006 0.264-0.015 0.3855-0.011 0.1215-0.026 0.231-0.044 0.327h-4.726c0.02 0.669 0.23 1.1865 0.635 1.5495 0.403 0.363 0.935 0.5465 1.597 0.5465 0.69 0 1.327-0.1115 1.911-0.335l0.246 1.092c-0.67 0.291-1.463 0.437-2.377 0.437-0.553 0-1.05-0.086-1.487-0.256-0.438-0.169-0.808-0.409-1.108-0.72-0.301-0.31-0.533-0.6835-0.694-1.12-0.159-0.4365-0.239-0.9255-0.239-1.4685s0.08-1.0455 0.239-1.506c0.161-0.4605 0.388-0.861 0.679-1.2 0.291-0.3405 0.645-0.606 1.057-0.801 0.413-0.1935 0.873-0.291 1.379-0.291 0.448 0 0.852 0.0795 1.219 0.24 0.364 0.159 0.675 0.387 0.932 0.684 0.259 0.2955 0.456 0.651 0.591 1.062 0.136 0.411 0.205 0.87 0.205 1.374zm-2.421-6.1845l1.269 2.124h-1.108l-0.716-1.338h-0.03l-0.714 1.338h-1.08l1.239-2.124h1.14zm0.917 5.778c0-0.5535-0.134-1.002-0.401-1.3455-0.268-0.3435-0.653-0.5175-1.158-0.5175-0.459 0-0.845 0.174-1.167 0.5235-0.32 0.3495-0.505 0.795-0.553 1.3395h3.279zm0.424-7.0425l0.948 2.007h-0.861l-1.413-2.007h1.326z"/>
<path d="m45.907 5.256h-1.736v3.435c0 0.873 0.306 1.309 0.919 1.309 0.283 0 0.514-0.0235 0.699-0.073l0.044 1.193c-0.311 0.116-0.72 0.175-1.224 0.175-0.623 0-1.11-0.189-1.46-0.567-0.349-0.378-0.527-1.014-0.527-1.9065v-3.5655h-1.034v-1.1775h1.034v-1.296l1.548-0.465v1.7595h1.735v1.179h0.002z"/>
<path d="m51.464 5.4615c-0.156-0.03-0.32-0.0435-0.496-0.0435-0.555 0-0.98 0.2085-1.284 0.6255-0.262 0.369-0.394 0.834-0.394 1.3965v3.711h-1.577l0.015-4.845c0-0.8145-0.018-1.557-0.056-2.226h1.368l0.059 1.353h0.044c0.163-0.4665 0.428-0.84 0.786-1.1205 0.352-0.252 0.731-0.378 1.14-0.378 0.144 0 0.276 0.009 0.394 0.0285v1.4985h0.001z"/>
<path d="m58.906 7.2795c0 0.135-0.006 0.264-0.015 0.3855s-0.024 0.231-0.044 0.327h-4.726c0.021 0.669 0.232 1.1865 0.635 1.5495s0.937 0.5465 1.597 0.5465c0.69 0 1.328-0.1115 1.911-0.335l0.247 1.092c-0.673 0.291-1.463 0.437-2.379 0.437-0.552 0-1.048-0.086-1.486-0.256-0.437-0.169-0.807-0.409-1.11-0.72-0.299-0.31-0.532-0.6835-0.693-1.12-0.158-0.4365-0.237-0.9255-0.237-1.4685s0.079-1.0455 0.237-1.506c0.161-0.4605 0.388-0.861 0.678-1.2 0.294-0.3405 0.647-0.606 1.057-0.801 0.414-0.1935 0.876-0.291 1.381-0.291 0.446 0 0.851 0.0795 1.219 0.24 0.364 0.159 0.675 0.387 0.931 0.684 0.259 0.2955 0.456 0.651 0.591 1.062 0.138 0.411 0.206 0.87 0.206 1.374zm-1.093-4.0605h-1.096l-0.802-1.3095h-0.03l-0.786 1.3095h-1.081l1.386-2.109h1.007l1.402 2.109zm-0.411 3.654c0-0.5535-0.132-1.002-0.4-1.3455-0.267-0.3435-0.654-0.5175-1.159-0.5175-0.459 0-0.845 0.174-1.165 0.5235-0.321 0.3495-0.506 0.795-0.555 1.3395h3.279z"/>
<path d="m66.912 11.15h-1.575v-4.0505c0-1.248-0.475-1.872-1.43-1.872-0.467 0-0.845 0.171-1.136 0.5145-0.292 0.3435-0.438 0.7485-0.438 1.212v4.194h-1.577v-5.049c0-0.621-0.018-1.2945-0.056-2.0235h1.383l0.074 1.1055h0.044c0.185-0.3435 0.458-0.627 0.816-0.8535 0.429-0.264 0.905-0.3975 1.43-0.3975 0.66 0 1.211 0.213 1.648 0.6405 0.546 0.5235 0.817 1.305 0.817 2.343v4.2365z"/>
</g>
</g>
</g>
</g>
</g>
</g>
</svg>
