<svg xmlns="http://www.w3.org/2000/svg" height="240px" width="240px" xmlns:xlink="http://www.w3.org/1999/xlink" viewBox="0 0 240 240">
<g fill-rule="evenodd" fill="none">
<g fill="#ddd">
<path d="m142.5 180h-45c-12.428 0-22.5-10.08-22.5-22.5 2.318-13.76 11.572-25.31 23.34-31.83-5.138-5.39-8.34-12.64-8.34-20.67v-15c0-16.568 13.43-30 30-30s30 13.432 30 30v15c0 8.03-3.2 15.28-8.33 20.67 11.76 6.52 21.01 18.07 23.33 31.83 0 12.42-10.08 22.5-22.5 22.5zm-7.5-75v-15c0-8.28-6.72-15-15-15s-15 6.72-15 15v15c0 8.28 6.72 15 15 15s15-6.72 15-15zm15 52.5c-3.34-12.92-16.04-22.5-30-22.5s-26.655 9.58-30 22.5c0 4.15 3.36 7.5 7.5 7.5h45c4.15 0 7.5-3.35 7.5-7.5z"/>
</g>
</g>
</svg>
