<svg xmlns="http://www.w3.org/2000/svg" xml:space="preserve" viewBox="-400 280.3 41 36" xmlns:xlink="http://www.w3.org/1999/xlink" enable-background="new -400 280.3 41 36">
<g>
	<g transform="translate(-1215 -13)">
		<g transform="translate(-100)">
			<g transform="translate(1305 1)">
				<g transform="translate(10 12)"><g fill="#fff">
					<path d="m-386 282.5l-8.4 10.5v13.4l7.7-0.9s1.5-0.2 1.6 1.1c0.1 1.5-1.3 1.5-1.3 1.5l-8 1.1v2.9l17.2 3.1v-22.2l-8.8-10.5zm3.5 19.2c-0.9 1.1-2.1 1.8-3.5 1.9h-0.2c-1.4 0-2.8-0.7-3.7-1.7-1-1.1-1.6-2.5-1.7-4.1v-0.4c0-1.6 0.5-3 1.4-4.1s2.1-1.8 3.5-1.9h0.2c1.4 0 2.8 0.7 3.7 1.7 1 1.1 1.6 2.5 1.7 4.1v0.4c-0.1 1.6-0.6 3-1.4 4.1z"/>
					<path d="m-370.6 295.2l-3.8 0.2v5.4l3.9-0.3-0.1-5.3"/>
					<path d="m-374.5 302.7v5.2l3.9-0.4v-5.2l-3.9 0.4"/>
					<path d="m-383.7 293.8c-0.8-0.9-1.8-1.4-2.9-1.4h-0.2c-1.1 0.1-2 0.6-2.7 1.5s-1.2 1.7-1.2 3.1v0.4c0.1 1.4 0.5 2.8 1.3 3.7s1.9 1.4 3 1.4h0.2c1.1-0.1 2-0.6 2.7-1.5s1.2-1.9 1.2-3.3v-0.6c-0.1-1.6-0.6-2.4-1.4-3.3zm-5.8 3.8c-0.1-2.1 0.9-3.9 2.4-4-0.8 0.6-1.4 2.1-1.3 3.9s0.8 3.3 1.7 3.8c-1.4 0.1-2.7-1.6-2.8-3.7z"/>
					<path d="m-368.4 295.3v5.4l3.3-0.2v-5.3l-3.3 0.1"/>
					<path d="m-368.4 307.4l3.3-0.3v-5.2l-3.3 0.2v5.3"/></g><g fill="#1B619F">
					<path d="m-370.5 280.3h-18.4l-10.9 12.7h3.8v13.6l-2.9 0.4s-1.4 0.3-1.1 1.7c0.3 0.9 1.4 0.9 1.4 0.9l2.6-0.3v3.8l18.2 3.3 14.5-3.2v-20h4.3l-11.5-12.9zm-4 15.1l3.8-0.2v5.2l-3.9 0.3 0.1-5.3zm-20 16.7v-2.9l8-1.1s1.4 0 1.3-1.5c-0.1-1.4-1.6-1.1-1.6-1.1l-7.7 0.9v-13.4l8.4-10.5 8.7 10.5v22.2l-17.1-3.1zm20-4.1v-5.2l3.8-0.3v5.2l-3.8 0.3zm9.4-0.9l-3.3 0.3v-5.3l3.3-0.2v5.2zm-3.3-6.3v-5.4l3.3-0.1v5.3l-3.3 0.2z"/>
					<path d="m-382.8 293.1c-1-1.1-2.3-1.7-3.7-1.7h-0.2c-1.4 0.1-2.7 0.8-3.5 1.9s-1.4 2.5-1.4 4.1v0.4c0.1 1.6 0.7 3.1 1.7 4.1 0.9 1.1 2.3 1.7 3.7 1.7h0.2c1.4-0.1 2.7-0.8 3.5-1.9 0.9-1.1 1.4-2.5 1.4-4.1v-0.4c-0.2-1.6-0.8-3.1-1.7-4.1zm-0.6 7.9c-0.7 0.9-1.7 1.4-2.7 1.4h-0.2c-1.1 0-2.1-0.5-2.9-1.3-0.8-0.9-1.3-2.1-1.4-3.4v-0.3c0-1.3 0.4-2.5 1.2-3.4 0.7-0.9 1.7-1.4 2.7-1.5h0.2c1.1 0 2.1 0.5 2.9 1.3 0.8 0.9 1.3 2.1 1.4 3.4v0.3c-0.1 1.4-0.5 2.6-1.2 3.5z"/>
					<path d="m-388.4 297.5c-0.1-1.8 0.5-3.3 1.3-3.9-1.4 0.1-2.5 1.9-2.4 4s1.3 3.8 2.8 3.7c-0.9-0.5-1.6-2-1.7-3.8"/>
					<path d="m-361.9 311.6h-0.4v-0.3h1.1v0.3h-0.4v1.4h-0.2v-1.4h-0.1zm1.2-0.3h0.4l0.5 1.3 0.5-1.3h0.4v1.7h-0.2v-1.4l-0.5 1.4h-0.2l-0.5-1.4v1.4h-0.2v-1.7h-0.2z"/>
				</g></g>
			</g>
		</g>
	</g>
</g>
</svg>
