<svg xmlns="http://www.w3.org/2000/svg" height="24px" width="24px" xmlns:xlink="http://www.w3.org/1999/xlink" viewBox="0 0 36 36">
<g fill-rule="evenodd" fill="none">
<g transform="translate(-30 -755)" fill="#434343">
<g transform="translate(0 130)">
<g transform="translate(30 625)">
<path d="m36 18c0 0.76-0.061 1.508-0.153 2.243-0.023 0.18-0.054 0.358-0.083 0.536-0.097 0.616-0.221 1.226-0.378 1.822-0.03 0.106-0.052 0.214-0.081 0.317-0.428 1.49-1.037 2.905-1.811 4.212-1.548 2.624-3.74 4.816-6.364 6.364-1.307 0.774-2.722 1.381-4.212 1.811-0.103 0.029-0.211 0.051-0.317 0.081-0.596 0.157-1.203 0.281-1.822 0.378-0.178 0.029-0.356 0.06-0.536 0.083-0.735 0.092-1.483 0.153-2.243 0.153s-1.508-0.061-2.243-0.153c-0.183-0.023-0.358-0.054-0.538-0.083-0.617-0.097-1.226-0.221-1.823-0.378-0.103-0.03-0.211-0.052-0.314-0.081-1.492-0.428-2.905-1.037-4.2125-1.811-2.6235-1.548-4.815-3.74-6.3653-6.364-0.7717-1.307-1.3814-2.722-1.809-4.212-0.0292-0.103-0.05395-0.211-0.08095-0.317-0.1575-0.596-0.28125-1.203-0.378-1.822-0.027-0.178-0.0585-0.356-0.08325-0.536-0.09225-0.735-0.153-1.483-0.153-2.243s0.06075-1.508 0.153-2.243c0.0225-0.183 0.054-0.358 0.08325-0.538 0.09675-0.617 0.2205-1.226 0.38025-1.823 0.027-0.103 0.05175-0.211 0.081-0.314 0.4275-1.49 1.0373-2.905 1.809-4.2125 1.5503-2.6235 3.7417-4.815 6.3653-6.3653 1.3052-0.7694 2.7202-1.3792 4.2102-1.8067 0.103-0.02925 0.211-0.054 0.314-0.081 0.597-0.15975 1.206-0.28125 1.823-0.38025 0.18-0.027 0.355-0.0585 0.538-0.08325 0.735-0.09225 1.483-0.153 2.243-0.153s1.508 0.06075 2.243 0.153c0.18 0.0225 0.358 0.054 0.536 0.08325 0.616 0.09675 1.226 0.2205 1.822 0.38025 0.106 0.027 0.214 0.05175 0.317 0.081 1.49 0.4275 2.905 1.0373 4.212 1.809 2.624 1.5503 4.816 3.7417 6.364 6.3653 0.774 1.3072 1.381 2.7202 1.811 4.2122 0.029 0.103 0.051 0.211 0.081 0.315 0.157 0.596 0.281 1.206 0.378 1.822 0.029 0.18 0.06 0.356 0.083 0.538 0.092 0.733 0.153 1.481 0.153 2.241zm-28.456-4.09l-3.3457-3.348c-1.2015 2.225-1.9485 4.731-1.9485 7.438s0.747 5.213 1.9485 7.438l3.3457-3.345c-0.4972-1.271-0.7942-2.644-0.7942-4.093 0-1.447 0.297-2.819 0.7942-4.09zm10.456 19.84c2.707 0 5.213-0.745 7.438-1.946l-3.345-3.348c-1.271 0.497-2.644 0.794-4.093 0.794-1.447 0-2.819-0.297-4.09-0.796l-3.348 3.348c2.225 1.203 4.731 1.948 7.438 1.948zm0-31.5c-2.707 0-5.213 0.747-7.438 1.9485l3.348 3.3457c1.271-0.4972 2.643-0.7942 4.09-0.7942 1.449 0 2.822 0.297 4.09 0.7942l3.346-3.3457c-2.223-1.2015-4.729-1.9485-7.436-1.9485zm8.667 13.448c-0.826-3.109-3.253-5.537-6.363-6.365-0.299-0.0788-0.601-0.144-0.911-0.1935-0.455-0.081-0.914-0.1395-1.393-0.1395s-0.938 0.0585-1.395 0.1395c-0.308 0.0495-0.61 0.1147-0.907 0.1935-3.109 0.828-5.537 3.256-6.365 6.365-0.0788 0.297-0.144 0.599-0.1935 0.907-0.081 0.457-0.1395 0.916-0.1395 1.395s0.0585 0.938 0.1395 1.393c0.0473 0.31 0.1147 0.609 0.1935 0.909 0.826 3.109 3.256 5.537 6.365 6.363 0.297 0.079 0.599 0.144 0.907 0.193 0.457 0.084 0.916 0.142 1.395 0.142s0.938-0.058 1.393-0.14c0.31-0.047 0.609-0.114 0.909-0.193 3.109-0.826 5.537-3.253 6.363-6.363 0.079-0.299 0.144-0.601 0.193-0.909 0.084-0.457 0.142-0.916 0.142-1.395s-0.058-0.938-0.14-1.395c-0.049-0.308-0.114-0.61-0.193-0.907zm5.137-5.136l-3.348 3.348c0.497 1.271 0.794 2.643 0.794 4.09 0 1.449-0.297 2.822-0.796 4.09l3.348 3.346c1.203-2.223 1.948-4.729 1.948-7.436s-0.745-5.213-1.946-7.438z"/>
</g>
</g>
</g>
</g>
</svg>
