<svg xmlns="http://www.w3.org/2000/svg" height="19px" width="24px" xmlns:xlink="http://www.w3.org/1999/xlink" viewBox="0 0 25 19">
<g fill-rule="evenodd" fill="none">
<g transform="translate(-18 -127)" fill="#434343">
<g transform="translate(0 61)">
<g transform="translate(18 57)">
<g transform="translate(0 9)">
<path d="m19.503 18.67h-15.002c-2.4861 0-4.501-2.089-4.501-4.667v-9.3355c0-2.578 2.0149-4.6675 4.5008-4.6675h15.002c2.485 0 4.501 2.0895 4.501 4.6675v9.3355c0 2.578-2.016 4.667-4.501 4.667zm-15.002-15.558c-0.3676 0-0.6901 0.1524-0.9512 0.3796l8.4524 5.8437 8.454-5.8437c-0.261-0.2272-0.586-0.3796-0.953-0.3796h-15.002-0.0002zm16.503 3.1116l-9.002 6.2237-9.0015-6.2237v6.2237l4.5008-1.556-4.0612 4.211c0.2716 0.282 0.6466 0.456 1.0607 0.456h15.002c0.415 0 0.79-0.174 1.061-0.456l-4.061-4.211 4.501 1.556v-6.2237z"/>
</g>
</g>
</g>
</g>
</g>
</svg>
