<svg xmlns="http://www.w3.org/2000/svg" height="24px" width="16px" xmlns:xlink="http://www.w3.org/1999/xlink" viewBox="0 0 23 36">
<g fill-rule="evenodd" fill="none">
<g transform="translate(-37 -851)" fill="#434343">
<g transform="translate(0 130)">
<g transform="translate(37 721)">
<path d="m17.889 0h-12.778c-2.811 0-5.111 2.16-5.111 4.8v26.4c0 2.64 2.3 4.8 5.1111 4.8h12.778c2.811 0 5.111-2.16 5.111-4.8v-26.4c0-2.64-2.3-4.8-5.111-4.8zm-7.889 31h3v3h-3v-3zm9-4.273c0 1.25-0.964 2.273-2.143 2.273h-10.714c-1.1787 0-2.143-1.023-2.143-2.273v-20.454c0-1.2503 0.9643-2.273 2.1429-2.273h10.714c1.179 0 2.143 1.0227 2.143 2.2727v20.454z"/>
</g>
</g>
</g>
</g>
</svg>
