<svg xmlns="http://www.w3.org/2000/svg" height="24px" width="24px" xmlns:xlink="http://www.w3.org/1999/xlink" viewBox="0 0 24 24">
<g fill-rule="evenodd" fill="none">
<g transform="translate(-18 -363)" fill="#434343">
<g transform="translate(0 61)">
<g transform="translate(18 302)">
<path d="m22.5 10.5h-1.5c-0.052 0-0.096 0.026-0.148 0.03-0.228-1.3845-0.764-2.658-1.547-3.753 0.037-0.0315 0.084-0.0435 0.12-0.0795l1.061-1.0605c0.586-0.5865 0.586-1.5345 0-2.121-0.587-0.5865-1.536-0.5865-2.123 0l-1.061 1.059c-0.034 0.0345-0.048 0.0825-0.079 0.12-1.093-0.7845-2.369-1.3185-3.753-1.5465 0.004-0.0525 0.03-0.096 0.03-0.1485v-1.5c0-0.828-0.67-1.5-1.5-1.5s-1.5 0.672-1.5 1.5v1.5c0 0.0525 0.026 0.096 0.03 0.1485-1.3845 0.228-2.6595 0.762-3.753 1.5465-0.0315-0.0375-0.045-0.084-0.0795-0.12l-1.0605-1.0605c-0.5865-0.5865-1.536-0.5865-2.1225 0-0.585 0.5865-0.585 1.5345 0 2.121l1.062 1.0605c0.0345 0.036 0.0795 0.0495 0.1185 0.081-0.7845 1.095-1.3185 2.3685-1.5465 3.753-0.0525-0.004-0.096-0.03-0.1485-0.03h-1.5c-0.8295 0-1.5 0.672-1.5 1.5s0.6705 1.5 1.5 1.5h1.5c0.0525 0 0.096-0.024 0.1485-0.03 0.228 1.384 0.7635 2.658 1.5465 3.753-0.0375 0.031-0.084 0.043-0.1185 0.079l-1.062 1.061c-0.585 0.587-0.585 1.536 0 2.121 0.5865 0.586 1.536 0.586 2.1225 0l1.0605-1.06c0.0345-0.035 0.048-0.083 0.0795-0.12 1.0935 0.784 2.3685 1.318 3.753 1.548-0.004 0.052-0.03 0.096-0.03 0.148v1.5c0 0.83 0.67 1.5 1.5 1.5s1.5-0.67 1.5-1.5v-1.5c0-0.052-0.026-0.096-0.03-0.148 1.384-0.23 2.658-0.764 3.753-1.548 0.031 0.037 0.043 0.085 0.079 0.12l1.061 1.06c0.587 0.586 1.536 0.586 2.123 0 0.586-0.585 0.586-1.534 0-2.121l-1.061-1.061c-0.036-0.034-0.083-0.046-0.12-0.079 0.783-1.095 1.319-2.369 1.547-3.753 0.052 0.006 0.096 0.03 0.148 0.03h1.5c0.83 0 1.5-0.672 1.5-1.5s-0.67-1.5-1.5-1.5zm-10.5 6c-2.4855 0-4.5-2.016-4.5-4.5 0-2.4855 2.0145-4.5 4.5-4.5 2.486 0 4.5 2.0145 4.5 4.5 0 2.484-2.014 4.5-4.5 4.5z"/>
</g>
</g>
</g>
</g>
</svg>
