<svg xmlns="http://www.w3.org/2000/svg" height="24px" width="24px" xmlns:xlink="http://www.w3.org/1999/xlink" viewBox="0 0 24 24">
<g fill-rule="evenodd" fill="none">
<g transform="translate(-18 -79)" fill="#434343">
<g transform="translate(0 61)">
<g transform="translate(18 18)">
<path d="m24 12c0-6.627-5.373-12-12-12s-12 5.373-12 12 5.373 12 12 12 12-5.373 12-12zm-3 0c0 4.97-4.03 9-9 9-4.9695 0-9-4.03-9-9 0-4.9695 4.0305-9 9-9 4.97 0 9 4.0305 9 9z"/>
<rect rx="40" height="3.0423" width="3.0423" y="10.479" x="10.479"/>
<path d="m19.606 12c0 4.2-3.406 7.606-7.606 7.606-4.2005 0-7.6056-3.406-7.6056-7.606h15.212z"/>
<path d="m6.4894 11.094c0.1549-0.427-0.0534-0.89-0.4706-1.05l-0.8853-0.3314c-0.4253-0.1523-0.8834 0.0599-1.041 0.4774-0.1542 0.426 0.0545 0.89 0.4725 1.048l0.8842 0.331 0.1185-0.316-0.1357 0.309c0.0601 0.027 0.1208 0.044 0.1847 0.053 0.3734 0.052 0.7349-0.163 0.8727-0.521zm1.3366-2.7233c0.3335-0.3031 0.3642-0.8129 0.0717-1.1476l-0.6263-0.7091c-0.3006-0.3331-0.8084-0.3639-1.1425-0.0681-0.3327 0.3024-0.3629 0.8127-0.069 1.1473l0.6247 0.7083c0.1304 0.1467 0.3045 0.2391 0.4929 0.2656 0.233 0.0327 0.4678-0.0379 0.6485-0.1964zm2.568-1.88c0.422-0.1021 0.688-0.5439 0.58-0.9797l-0.219-0.9185c-0.102-0.4371-0.54-0.7046-0.9765-0.5988-0.4357 0.1073-0.7011 0.5478-0.5947 0.983l0.2211 0.9205c0.0755 0.3244 0.3475 0.5664 0.6741 0.6122 0.107 0.0151 0.211 0.011 0.315-0.0187zm4.238-0.5747l0.232-0.9203c0.112-0.4312-0.15-0.8766-0.583-0.9872-0.435-0.1107-0.877 0.1531-0.986 0.5895l-0.231 0.9188c-0.113 0.4315 0.149 0.8756 0.582 0.9879l0.021 0.0047c0.012 0.0025 0.012 0.0025 0.028 0.0055 0.014 0.0026 0.027 0.0047 0.041 0.0066 0.407 0.0572 0.795-0.2038 0.896-0.6055zm2.701 2.4228l0.634-0.7067c0.298-0.3332 0.271-0.847-0.059-1.1465-0.327-0.3022-0.845-0.2749-1.143 0.062l-0.632 0.7038c-0.3 0.3302-0.275 0.8463 0.057 1.1458 0.115 0.1095 0.266 0.1782 0.43 0.2013 0.263 0.0369 0.53-0.0577 0.713-0.2597zm1.213 3.2712l0.88-0.322c0.418-0.155 0.635-0.62 0.485-1.04-0.152-0.4228-0.617-0.6409-1.039-0.4882l-0.886 0.3252c-0.42 0.153-0.636 0.62-0.484 1.041 0.095 0.283 0.348 0.488 0.644 0.53 0.135 0.019 0.27 0.004 0.4-0.046z"/>
<path d="m13.751 11.986c0.313-0.219 0.395-0.648 0.189-0.966l-2.747-4.2196c-0.209-0.3217-0.633-0.4069-0.946-0.1889-0.3106 0.215-0.3934 0.6446-0.187 0.9634l2.747 4.2201c0.118 0.18 0.312 0.29 0.52 0.304 0.147 0.011 0.298-0.029 0.424-0.113z"/>
</g>
</g>
</g>
</g>
</svg>
