<svg xmlns="http://www.w3.org/2000/svg" height="18px" width="18px" xmlns:xlink="http://www.w3.org/1999/xlink" viewBox="0 0 18 18">
<g fill-rule="evenodd" fill="none">
<g transform="translate(-237 -92)" fill="#434343">
<g transform="translate(19 81)">
<g transform="translate(207)">
<g transform="translate(11 11)">
<path d="m14.625 18h-11.25c-1.8641 0-3.375-1.512-3.375-3.375v-11.25c0-1.467 0.94275-2.7034 2.25-3.168v1.4805c0 0.9326 0.756 1.6875 1.6875 1.6875s1.6875-0.7549 1.6875-1.6875v-1.6875h6.75v1.6875c0 0.9326 0.756 1.6875 1.687 1.6875 0.932 0 1.688-0.7549 1.688-1.6875v-1.4805c1.307 0.46462 2.25 1.701 2.25 3.168v11.25c0 1.863-1.511 3.375-3.375 3.375zm1.125-12.375h-13.5v9c0 0.622 0.5029 1.125 1.125 1.125h11.25c0.622 0 1.125-0.503 1.125-1.125v-9zm-4.5 5.625h2.25v2.25h-2.25v-2.25zm0-3.375h2.25v2.25h-2.25v-2.25zm-3.375 3.375h2.25v2.25h-2.25v-2.25zm0-3.375h2.25v2.25h-2.25v-2.25zm-3.375 3.375h2.25v2.25h-2.25v-2.25zm0-3.375h2.25v2.25h-2.25v-2.25zm9.562-5.625c-0.31 0-0.562-0.252-0.562-0.5625v-1.6875h1.125v1.6875c0 0.3105-0.252 0.5625-0.563 0.5625zm-10.124 0c-0.3105 0-0.5625-0.252-0.5625-0.5625v-1.6875h1.125v1.6875c0 0.3105-0.252 0.5625-0.5625 0.5625z"/>
</g>
</g>
</g>
</g>
</g>
</svg>
