<svg xmlns="http://www.w3.org/2000/svg" height="60px" width="60px" xmlns:xlink="http://www.w3.org/1999/xlink" viewBox="0 0 60 60">
<g fill-rule="evenodd" fill="none">
<g transform="translate(-182 -1959)">
<g transform="translate(77 1959)">
<g transform="translate(31)">
<g transform="translate(74)">
<path fill="#398FD1" d="m60 30c0-16.569-13.431-30-30-30s-30 13.431-30 30 13.431 30 30 30 30-13.431 30-30zm-56.25 0c0-14.497 11.753-26.25 26.25-26.25s26.25 11.753 26.25 26.25-11.753 26.25-26.25 26.25-26.25-11.753-26.25-26.25z"/>
<path fill="#221E1F" d="m37.279 20.795c-1.258-2.262-3.011-3.681-5.183-4.257v-3.413h-3.811v3.337c-1.563 0.345-2.858 1.15-3.849 2.416-0.991 1.265-1.486 2.723-1.486 4.449 0 8.284 11.356 7.133 11.356 12.387 0 2.34-1.677 4.027-4.077 4.027-2.63 0-4.421-1.879-5.374-5.676l-3.43 2.186c0.8 3.797 3.316 6.559 6.86 7.287v3.337h3.811v-3.337c3.849-0.728 6.479-3.797 6.479-7.977 0.038-4.832-4.193-6.75-7.394-8.169-2.248-1.074-4.039-2.416-4.039-4.372 0-1.649 1.105-2.915 2.782-2.915 1.6 0 2.934 0.997 3.963 2.953l3.392-2.263z"/>
</g>
</g>
</g>
</g>
</g>
</svg>
