<svg xmlns="http://www.w3.org/2000/svg" height="142px" width="140px" xmlns:xlink="http://www.w3.org/1999/xlink" viewBox="0 0 140 142">
<g fill-rule="evenodd" fill="none">
<g transform="translate(-294 -798)">
<g transform="translate(294 798)">
<path fill="#888" d="m140 100v-18h-8v-13.899l6 2.259v-4.274l-54-20.333v-29.753h-64v-10h2v-6h-14v6h2v10h-6v118h-4v8h140v-8h-4v-34h4zm-8-16h6v14h-6v-14zm-48 0h6v14h-6v-14zm8 0h6v14h-6v-14zm8 0h6v14h-6v-14zm8 0h6v14h-6v-14zm8 0h6v14h-6v-14zm8 0h6v14h-6v-14zm6-16.652v14.652h-46v-31.973l46 17.321zm-120-65.348h10v2h-10v-2zm2 4h6v10h-6v-10zm-6 12h76v116h-4v-46h-20v46h-52v-116zm54 72h16v44h-16v-44zm-58 46h136v4h-136v-4zm88-30h38v4h-38v-4zm0 6h38v4h-38v-4zm0 6h38v4h-38v-4zm0 6h38v4h-38v-4zm0 6h38v4h-38v-4zm44 4h-4v-30h-42v30h-4v-34h50v34z"/>
<path fill="#888" d="m10 84h20v-62h-20v62zm2-60h16v58h-16v-58z"/>
<g fill="#D8EEFF">
<rect height="58" width="16" y="24" x="12"/>
<rect height="58" width="16" y="24" x="36"/>
<rect height="58" width="16" y="24" x="60"/>
</g>
<g fill="#888">
<path d="m34 84h20v-62h-20v62zm2-60h16v58h-16v-58z"/>
<path d="m62 117h12v-25h-12v25zm2-23h8v21h-8v-21z"/>
<path d="m58 84h20v-62h-20v62zm2-60h16v58h-16v-58z"/>
</g>
</g>
</g>
</g>
</svg>
