<svg xmlns="http://www.w3.org/2000/svg" height="60px" width="174px" xmlns:xlink="http://www.w3.org/1999/xlink" viewBox="0 0 174 60">
<defs>
<linearGradient id="d" y1="91.98%" x2="33.5%" x1="60.1%" y2="-59.246%">
<stop stop-color="#D7E69D" offset="0"/>
<stop stop-color="#94C4AA" offset=".4456"/>
<stop stop-color="#01A4B6" offset="1"/>
</linearGradient>
<linearGradient id="c" y1="-128.82%" x2="80.472%" x1="-31.986%" y2="114.26%">
<stop stop-color="#ED277B" offset="0"/>
<stop stop-color="#EE2F7C" offset=".0192"/>
<stop stop-color="#F7BD81" offset=".7039"/>
<stop stop-color="#FEEB74" offset="1"/>
</linearGradient>
<linearGradient id="b" y1="74.718%" x2="-.0083308%" x1="50.907%" y2="-29.439%">
<stop stop-color="#89CFBD" offset="0"/>
<stop stop-color="#7DBEBB" offset=".0907"/>
<stop stop-color="#457CAC" offset=".5396"/>
<stop stop-color="#1C5AA2" offset=".8523"/>
<stop stop-color="#084D9F" offset="1"/>
</linearGradient>
<linearGradient id="a" y1="35.68%" x2="-22.991%" x1="119.3%" y2="61.185%">
<stop stop-color="#F04A2B" offset="0"/>
<stop stop-color="#B54F6B" offset=".4704"/>
<stop stop-color="#8B5191" offset=".8353"/>
<stop stop-color="#7851A1" offset="1"/>
</linearGradient>
</defs>
<g fill-rule="evenodd" fill="none">
<g>
<g>
<g>
<path stroke="#fff" fill="#010101" d="m174 51c0 5.691-3.88 9-9 9h-155c-5.7144 0-10-4.317-10-10l-5.6843e-14 -40c0-5.6844 4.2845-10 10-10h155c5.12 0 9 4.3156 9 10v41z"/>
<path stroke="#fff" fill="#010101" d="m165 60h-155c-5.7144 0-10-4.317-10-10l1.7053e-13 -40c0-5.6844 4.2845-10 10-10l155-5.6843e-14c5.12 0 9 4.3156 9 10v41c0 5.691-3.88 9-9 9z"/>
<g transform="translate(7.25 23.793)">
<path d="m15.111 14.371l4.446-4.44h-0.001l-4.445 4.44-14.188-14.172-0.00121-0.00038 14.189 14.174-14.212 14.194 14.212-14.194 4.466 4.46h0.002l-4.468-4.462z"/>
<path d="m19.556 9.931l-17.323-9.5141c-0.4899-0.26793-0.9446-0.33-1.3102-0.21724l14.189 14.171 4.444-4.44z" fill="url(#d)"/>
<path d="m19.579 18.833l5.913-3.25c1.199-0.662 1.199-1.736 0-2.393l-5.935-3.259-4.445 4.44 4.467 4.462z" fill="url(#c)"/>
<path d="m0.92179 0.19862c-0.52615 0.16448-0.86793 0.69828-0.86793 1.5042l0.003104 25.367c0 0.797 0.33143 1.321 0.84204 1.496l14.213-14.196-14.19-14.171-0.00021-0.00038z" fill="url(#b)"/>
<path d="m0.899 28.567c0.3698 0.125 0.8327 0.065 1.334-0.208l17.345-9.526-4.466-4.461-14.213 14.195z" fill="url(#a)"/>
</g>
</g>
<g fill="#fff" transform="translate(40 6)">
<path d="m78.417 37.404l-1.306 1.24c-0.302 0.168-0.602 0.362-0.902 0.5-0.907 0.414-1.83 0.519-2.65 0.519-0.873 0-2.24-0.057-3.636-1.073-1.939-1.376-2.786-3.739-2.786-5.799 0-4.265 3.447-6.357 6.259-6.357 0.983 0 1.993 0.248 2.813 0.771 1.365 0.908 1.718 2.089 1.914 2.722l-6.422 2.613-2.102 0.165c0.68 3.496 3.029 5.53 5.625 5.53 1.297 0 2.26-0.426 3.143-0.866 0 0 0.177-0.093 0.05 0.035zm-3.874-6.956c0.522-0.191 0.793-0.356 0.793-0.739 0-1.098-1.235-2.367-2.708-2.367-1.091 0-3.139 0.855-3.139 3.827 0 0.464 0.054 0.958 0.082 1.452l4.972-2.173z"/>
<path d="m64.991 37.19c0 1.069 0.19 1.236 1.087 1.319 0.468 0.056 0.934 0.081 1.396 0.135l-1.011 0.606h-4.814c0.632-0.824 0.74-0.906 0.74-1.456v-0.614l-0.01-16.355h-2.126l2.046-0.992h3.907c-0.847 0.493-1.1 0.794-1.209 1.757l-0.006 15.6"/>
<path d="m57.525 27.784c0.627 0.519 1.936 1.621 1.936 3.711 0 2.037-1.14 2.997-2.29 3.907-0.353 0.357-0.766 0.746-0.766 1.346 0 0.608 0.413 0.938 0.71 1.184l0.987 0.767c1.2 1.02 2.293 1.956 2.293 3.854 0 2.588-2.487 5.197-7.186 5.197-3.958 0-5.871-1.898-5.871-3.934 0-0.991 0.489-2.393 2.105-3.354 1.693-1.043 3.988-1.182 5.216-1.263-0.383-0.5-0.821-1.022-0.821-1.874 0-0.467 0.139-0.744 0.273-1.073-0.299 0.029-0.6 0.059-0.873 0.059-2.897 0-4.535-2.177-4.535-4.322 0-1.265 0.573-2.668 1.75-3.686 1.557-1.291 3.414-1.514 4.89-1.514h5.629l-1.75 0.995h-1.697zm-1.936 12.211c-0.223-0.029-0.358-0.029-0.628-0.029-0.247 0-1.723 0.054-2.866 0.44-0.605 0.223-2.353 0.881-2.353 2.835 0 1.949 1.887 3.355 4.806 3.355 2.623 0 4.015-1.266 4.015-2.97 0-1.402-0.901-2.143-2.974-3.631zm0.786-5.226c0.632-0.635 0.686-1.512 0.686-2.01 0-1.978-1.171-5.06-3.441-5.06-0.709 0-1.476 0.358-1.912 0.912-0.461 0.573-0.6 1.316-0.6 2.031 0 1.842 1.067 4.897 3.414 4.897 0.684 0 1.421-0.335 1.853-0.77z"/>
<path d="m40.59 39.606c-4.342 0-6.665-3.405-6.665-6.487 0-3.603 2.92-6.685 7.074-6.685 4.016 0 6.531 3.166 6.531 6.49 0 3.247-2.486 6.682-6.94 6.682zm3.416-2.226c0.661-0.88 0.82-1.978 0.82-3.05 0-2.422-1.146-7.042-4.533-7.042-0.901 0-1.809 0.354-2.463 0.933-1.067 0.963-1.257 2.172-1.257 3.359 0 2.717 1.334 7.2 4.645 7.2 1.068 0 2.158-0.521 2.788-1.4z"/>
<path d="m26.053 39.606c-4.343 0-6.662-3.405-6.662-6.487 0-3.603 2.921-6.685 7.074-6.685 4.013 0 6.525 3.166 6.525 6.49 0 3.247-2.482 6.682-6.937 6.682zm3.416-2.226c0.656-0.88 0.819-1.978 0.819-3.05 0-2.422-1.149-7.042-4.533-7.042-0.904 0-1.802 0.354-2.458 0.933-1.068 0.963-1.257 2.172-1.257 3.359 0 2.717 1.339 7.2 4.644 7.2 1.066 0 2.154-0.521 2.785-1.4z"/>
<path d="m17.655 38.652l-3.663 0.843c-1.483 0.236-2.815 0.444-4.226 0.444-7.064 0-9.755-5.236-9.755-9.334 0-5.004 3.813-9.643 10.344-9.643 1.381 0 2.711 0.204 3.922 0.536 1.919 0.544 2.816 1.212 3.378 1.605l-2.127 2.034-0.898 0.203 0.64-1.027c-0.867-0.852-2.459-2.424-5.48-2.424-4.04 0-7.088 3.093-7.088 7.608 0 4.849 3.48 9.41 9.061 9.41 1.64 0 2.485-0.332 3.251-0.641v-4.157l-3.867 0.209 2.05-1.109h5.426l-0.663 0.643c-0.18 0.154-0.203 0.206-0.254 0.411-0.027 0.235-0.051 0.982-0.051 1.244v3.145"/>
<path d="m86.291 37.521v7.006h-1.382v-17.828h1.382v2.03c0.9-1.312 2.545-2.352 4.455-2.352 3.426 0 5.735 2.617 5.735 6.761 0 4.115-2.309 6.787-5.735 6.787-1.803 0-3.418-0.936-4.455-2.404zm8.705-4.383c0-3.123-1.617-5.505-4.483-5.505-1.78 0-3.482 1.409-4.222 2.637v5.707c0.74 1.231 2.442 2.691 4.222 2.691 2.866 0 4.483-2.403 4.483-5.53z"/>
<path d="m98.368 21.777h1.381v17.828h-1.381v-17.828z"/>
<path d="m115.25 43.375c0.3 0.132 0.8 0.214 1.12 0.214 0.85 0 1.44-0.348 1.97-1.578l1-2.299-5.44-13.013h1.54l4.67 11.277 4.62-11.277h1.57l-6.64 15.743c-0.69 1.623-1.78 2.403-3.26 2.403-0.45 0-1.04-0.081-1.38-0.187l0.23-1.283"/>
<path d="m111.22 39.566c-0.1-0.448-0.16-0.842-0.22-1.171-0.04-0.329-0.06-0.665-0.06-1.007-0.48 0.701-1.15 1.284-2 1.743-0.86 0.462-1.68 0.689-2.8 0.689-1.34 0-2.39-0.334-3.13-1.011-0.75-0.675-1.12-1.591-1.12-2.749 0-1.157 0.54-2.096 1.62-2.814 1.08-0.721 2.48-1.079 4.21-1.079h3.22v-1.605c0-0.923-0.32-1.649-0.94-2.176-0.63-0.527-1.5-0.794-2.64-0.794-1.05 0-1.89 0.244-2.54 0.718-0.63 0.484-0.95 1.085-0.95 1.807h-1.42l-0.03-0.069c-0.05-0.974 0.4-1.83 1.34-2.568 0.93-0.738 2.16-1.109 3.67-1.109s2.73 0.366 3.65 1.094c0.92 0.721 1.38 1.764 1.38 3.127v6.367c0 0.456 0.02 0.898 0.07 1.329 0.06 0.431 0.15 0.861 0.28 1.278h-1.59zm-4.91-1.014c1.18 0 2.02-0.264 2.88-0.786 0.86-0.52 1.44-1.197 1.75-2.017v-2.478h-3.24c-1.24 0-2.26 0.275-3.07 0.831-0.8 0.554-1.21 1.226-1.21 2.006 0 0.735 0.26 1.324 0.77 1.77 0.52 0.451 1.22 0.674 2.12 0.674z"/>
<path d="m2.886 11.497v-7.358h-2.617v-1.344h6.75v1.344h-2.618v7.358h-1.515"/>
<path d="m10.1 8.731l-0.907 2.766h-1.166l2.967-8.793h1.36l2.98 8.793h-1.205l-0.933-2.766h-3.096zm2.863-0.887l-0.855-2.531c-0.194-0.574-0.324-1.096-0.454-1.605h-0.026c-0.129 0.522-0.272 1.057-0.44 1.592l-0.855 2.544h2.63zm-1.581-5.767c0.207-0.561 0.674-0.665 0.674-1.096 0-0.248-0.181-0.404-0.428-0.404-0.272 0-0.492 0.235-0.648 0.457l-0.427-0.262c0.233-0.469 0.622-0.874 1.282-0.874 0.597 0 1.076 0.405 1.076 0.94 0 0.665-0.583 0.808-0.933 1.409l-0.596-0.17z"/>
<path d="m16.873 2.795h1.516v8.702h-1.516v-8.702z"/>
<path d="m30.006 11.497l-2.422-3.406-2.423 3.406h-1.813l3.225-4.462-3.031-4.24h1.814l2.228 3.183 2.215-3.183h1.827l-3.044 4.226 3.238 4.476h-1.814"/>
<path d="m33.101 8.052v-5.257h1.541v5.218c0 1.383 0.764 2.283 2.202 2.283s2.203-0.9 2.203-2.283v-5.218h1.541v5.257c0 2.153-1.231 3.601-3.744 3.601-2.5 0-3.743-1.448-3.743-3.601"/>
<path d="m50.275 7.009c0 3.026-1.826 4.631-4.054 4.631-2.306 0-3.926-1.8-3.926-4.462 0-2.792 1.724-4.618 4.056-4.618 2.383 0 3.924 1.839 3.924 4.449zm-6.775 0.143c0 1.879 1.011 3.562 2.785 3.562 1.788 0 2.799-1.657 2.799-3.653 0-1.748-0.907-3.575-2.785-3.575-1.866 0-2.799 1.735-2.799 3.666zm3.304-6.405l1.23 1.487h-0.906l-0.726-0.914h-0.026l-0.712 0.914h-0.868l1.191-1.487h0.817zm2.849-0.992l-1.567 1.37h-0.674l1.089-1.37h1.152z"/>
<path d="m58.02 11.497l-4.508-6.224v6.224h-1.516v-8.702h1.555l4.417 6.027v-6.027h1.515v8.702h-1.463"/>
<path d="m61.269 7.152c0-2.739 2.021-4.501 4.534-4.501 1.684 0 2.785 0.809 3.471 1.801l-1.23 0.717c-0.466-0.652-1.282-1.161-2.241-1.161-1.71 0-2.98 1.305-2.98 3.144 0 1.814 1.27 3.144 2.98 3.144 0.881 0 1.658-0.404 2.047-0.782v-1.344h-2.591v-1.344h4.094v3.249c-0.842 0.952-2.06 1.591-3.55 1.591-2.513 0-4.534-1.787-4.534-4.514"/>
<path d="m76.98 11.497v-7.358h-2.618v-1.344h6.75v1.344h-2.617v7.358h-1.515"/>
<path d="m87.652 11.497l-1.904-3.249h-1.516v3.249h-1.515v-8.702h3.796c1.71 0 2.837 1.109 2.837 2.726 0 1.54-1.011 2.388-2.06 2.558l2.124 3.418h-1.762zm0.143-5.989c0-0.835-0.622-1.369-1.477-1.369h-2.086v2.765h2.086c0.855 0 1.477-0.548 1.477-1.396z"/>
<path d="m91.187 11.497v-8.702h5.919v1.344h-4.404v2.243h4.314v1.344h-4.314v2.427h4.404v1.344h-5.919zm3.951-9.498l-1.011-1.266-0.959 1.266h-0.867l1.204-1.879h1.244l1.243 1.879h-0.854z"/>
<path d="m105.01 11.497l-4.51-6.224v6.224h-1.517v-8.702h1.557l4.42 6.027v-6.027h1.51v8.702h-1.46"/>
</g>
</g>
</g>
</g>
</svg>
