<svg xmlns="http://www.w3.org/2000/svg" height="36px" width="59px" xmlns:xlink="http://www.w3.org/1999/xlink" viewBox="0 0 59 36">
<g fill-rule="evenodd" fill="none">
<g transform="translate(-353 -190)">
<g transform="translate(12 91)">
<g transform="translate(341 99)">
<path fill="#3957A7" d="m59 33.702c0 1.439-0.881 2.298-2.329 2.298h-54.342c-1.4489 0-2.329-0.859-2.329-2.298v-31.404c0-1.4383 0.88009-2.298 2.3289-2.298h54.342c1.448 0 2.329 0.85967 2.329 2.2979v31.404"/>
<g fill="#fff">
<path d="m26.821 23.26h-2.869l1.794-10.815h2.869l-1.794 10.815"/>
<path d="m21.539 12.445l-2.736 7.439-0.323-1.602-0.965-4.863s-0.117-0.974-1.361-0.974h-4.523l-0.052 0.183s1.383 0.282 3.001 1.236l2.492 9.396h2.99l4.565-10.815h-3.088"/>
<path d="m44.106 23.26h2.634l-2.296-10.815h-2.307c-1.065 0-1.325 0.805-1.325 0.805l-4.278 10.01h2.99l0.598-1.606h3.648l0.336 1.606zm-3.157-3.825l1.508-4.048 0.848 4.048h-2.356z"/>
<path d="m36.758 15.046l0.409-2.323s-1.263-0.472-2.58-0.472c-1.424 0-4.805 0.611-4.805 3.581 0 2.795 3.969 2.829 3.969 4.296s-3.56 1.205-4.735 0.28l-0.427 2.428s1.281 0.611 3.239 0.611c1.957 0 4.912-0.995 4.912-3.703 0-2.812-4.004-3.074-4.004-4.297s2.795-1.066 4.022-0.401"/>
</g>
<path fill="#F9A533" d="m18.48 18.282l-0.965-4.863s-0.117-0.974-1.361-0.974h-4.523l-0.052 0.183s2.173 0.442 4.257 2.098c1.993 1.583 2.644 3.556 2.644 3.556"/>
</g>
</g>
</g>
</g>
</svg>
